<svg width="202" height="46" viewBox="0 0 202 46" fill="none" xmlns="http://www.w3.org/2000/svg">
<g filter="url(#filter0_d_108_66)">
<rect x="4" width="194" height="38" rx="10" fill="#3F236A" shape-rendering="crispEdges"/>
<path d="M66.144 20.6089H67.5503C67.4771 21.2827 67.2842 21.8857 66.9717 22.418C66.6592 22.9502 66.2173 23.3726 65.646 23.6851C65.0747 23.9927 64.3618 24.1465 63.5073 24.1465C62.8823 24.1465 62.3135 24.0293 61.8008 23.7949C61.293 23.5605 60.856 23.2285 60.4897 22.7988C60.1235 22.3643 59.8403 21.8442 59.6401 21.2388C59.4448 20.6284 59.3472 19.9497 59.3472 19.2026V18.1406C59.3472 17.3936 59.4448 16.7173 59.6401 16.1118C59.8403 15.5015 60.126 14.979 60.4971 14.5444C60.873 14.1099 61.3247 13.7754 61.8521 13.541C62.3794 13.3066 62.9727 13.1895 63.6318 13.1895C64.4375 13.1895 65.1187 13.3408 65.6753 13.6436C66.2319 13.9463 66.6641 14.3662 66.9717 14.9033C67.2842 15.4355 67.4771 16.0532 67.5503 16.7563H66.144C66.0757 16.2583 65.9487 15.8311 65.7632 15.4746C65.5776 15.1133 65.314 14.835 64.9722 14.6396C64.6304 14.4443 64.1836 14.3467 63.6318 14.3467C63.1582 14.3467 62.7407 14.437 62.3794 14.6177C62.0229 14.7983 61.7227 15.0547 61.4785 15.3867C61.2393 15.7188 61.0586 16.1167 60.9365 16.5806C60.8145 17.0444 60.7534 17.5596 60.7534 18.126V19.2026C60.7534 19.7251 60.8071 20.2158 60.9146 20.6748C61.0269 21.1338 61.1953 21.5366 61.4199 21.8833C61.6445 22.23 61.9302 22.5034 62.2769 22.7036C62.6235 22.8989 63.0337 22.9966 63.5073 22.9966C64.1079 22.9966 64.5864 22.9014 64.9429 22.7109C65.2993 22.5205 65.5679 22.2471 65.7485 21.8906C65.9341 21.5342 66.0659 21.1069 66.144 20.6089ZM70.6265 17.3203V24H69.2715V16.0752H70.5898L70.6265 17.3203ZM73.1021 16.0312L73.0947 17.291C72.9824 17.2666 72.875 17.252 72.7725 17.2471C72.6748 17.2373 72.5625 17.2324 72.4355 17.2324C72.123 17.2324 71.8472 17.2812 71.6079 17.3789C71.3687 17.4766 71.166 17.6133 71 17.7891C70.834 17.9648 70.7021 18.1748 70.6045 18.4189C70.5117 18.6582 70.4507 18.9219 70.4214 19.21L70.0405 19.4297C70.0405 18.9512 70.0869 18.502 70.1797 18.082C70.2773 17.6621 70.4263 17.291 70.6265 16.9688C70.8267 16.6416 71.0806 16.3877 71.3882 16.207C71.7007 16.0215 72.0718 15.9287 72.5015 15.9287C72.5991 15.9287 72.7114 15.9409 72.8384 15.9653C72.9653 15.9849 73.0532 16.0068 73.1021 16.0312ZM77.4966 24.1465C76.9448 24.1465 76.4443 24.0537 75.9951 23.8682C75.5508 23.6777 75.1675 23.4116 74.8452 23.0698C74.5278 22.728 74.2837 22.3228 74.1128 21.854C73.9419 21.3853 73.8564 20.8726 73.8564 20.3159V20.0083C73.8564 19.3638 73.9517 18.79 74.1421 18.2871C74.3325 17.7793 74.5913 17.3496 74.9185 16.998C75.2456 16.6465 75.6167 16.3804 76.0317 16.1997C76.4468 16.019 76.8765 15.9287 77.3208 15.9287C77.8872 15.9287 78.3755 16.0264 78.7856 16.2217C79.2007 16.417 79.54 16.6904 79.8037 17.042C80.0674 17.3887 80.2627 17.7988 80.3896 18.2725C80.5166 18.7412 80.5801 19.2539 80.5801 19.8105V20.4185H74.6621V19.3125H79.2251V19.21C79.2056 18.8584 79.1323 18.5166 79.0054 18.1846C78.8833 17.8525 78.688 17.5791 78.4194 17.3643C78.1509 17.1494 77.7847 17.042 77.3208 17.042C77.0132 17.042 76.73 17.1079 76.4712 17.2397C76.2124 17.3667 75.9902 17.5571 75.8047 17.811C75.6191 18.0649 75.4751 18.375 75.3726 18.7412C75.27 19.1074 75.2188 19.5298 75.2188 20.0083V20.3159C75.2188 20.6919 75.27 21.0459 75.3726 21.3779C75.48 21.7051 75.6338 21.9932 75.834 22.2422C76.0391 22.4912 76.2856 22.6865 76.5737 22.8281C76.8667 22.9697 77.1987 23.0405 77.5698 23.0405C78.0483 23.0405 78.4536 22.9429 78.7856 22.7476C79.1177 22.5522 79.4082 22.291 79.6572 21.9639L80.4775 22.6157C80.3066 22.8745 80.0894 23.1211 79.8257 23.3555C79.562 23.5898 79.2373 23.7803 78.8516 23.9268C78.4707 24.0732 78.019 24.1465 77.4966 24.1465ZM86.835 22.645V18.5654C86.835 18.2529 86.7715 17.9819 86.6445 17.7524C86.5225 17.5181 86.3369 17.3374 86.0879 17.2104C85.8389 17.0835 85.5312 17.02 85.165 17.02C84.8232 17.02 84.5229 17.0786 84.2642 17.1958C84.0103 17.313 83.8101 17.4668 83.6636 17.6572C83.522 17.8477 83.4512 18.0527 83.4512 18.2725H82.0962C82.0962 17.9893 82.1694 17.7085 82.3159 17.4302C82.4624 17.1519 82.6724 16.9004 82.9458 16.6758C83.2241 16.4463 83.5562 16.2656 83.9419 16.1338C84.3325 15.9971 84.7671 15.9287 85.2456 15.9287C85.8218 15.9287 86.3296 16.0264 86.769 16.2217C87.2134 16.417 87.5601 16.7124 87.8091 17.1079C88.063 17.4985 88.1899 17.9893 88.1899 18.5801V22.2715C88.1899 22.5352 88.2119 22.8159 88.2559 23.1138C88.3047 23.4116 88.3755 23.668 88.4683 23.8828V24H87.0547C86.9863 23.8438 86.9326 23.6362 86.8936 23.3774C86.8545 23.1138 86.835 22.8696 86.835 22.645ZM87.0693 19.1953L87.084 20.1475H85.7144C85.3286 20.1475 84.9844 20.1792 84.6816 20.2427C84.3789 20.3013 84.125 20.3916 83.9199 20.5137C83.7148 20.6357 83.5586 20.7896 83.4512 20.9751C83.3438 21.1558 83.29 21.3682 83.29 21.6123C83.29 21.8613 83.3462 22.0884 83.4585 22.2935C83.5708 22.4985 83.7393 22.6621 83.9639 22.7842C84.1934 22.9014 84.4741 22.96 84.8062 22.96C85.2212 22.96 85.5874 22.8721 85.9048 22.6963C86.2222 22.5205 86.4736 22.3057 86.6592 22.0518C86.8496 21.7979 86.9521 21.5513 86.9668 21.312L87.5454 21.9639C87.5112 22.1689 87.4185 22.396 87.2671 22.645C87.1157 22.894 86.9131 23.1333 86.6592 23.3628C86.4102 23.5874 86.1123 23.7754 85.7656 23.9268C85.4238 24.0732 85.0381 24.1465 84.6084 24.1465C84.0713 24.1465 83.6001 24.0415 83.1948 23.8315C82.7944 23.6216 82.4819 23.3408 82.2573 22.9893C82.0376 22.6328 81.9277 22.2349 81.9277 21.7954C81.9277 21.3706 82.0107 20.9971 82.1768 20.6748C82.3428 20.3477 82.582 20.0767 82.8945 19.8618C83.207 19.6421 83.583 19.4761 84.0225 19.3638C84.4619 19.2515 84.9526 19.1953 85.4946 19.1953H87.0693ZM91.6763 17.3203V24H90.3213V16.0752H91.6396L91.6763 17.3203ZM94.1519 16.0312L94.1445 17.291C94.0322 17.2666 93.9248 17.252 93.8223 17.2471C93.7246 17.2373 93.6123 17.2324 93.4854 17.2324C93.1729 17.2324 92.897 17.2812 92.6577 17.3789C92.4185 17.4766 92.2158 17.6133 92.0498 17.7891C91.8838 17.9648 91.752 18.1748 91.6543 18.4189C91.5615 18.6582 91.5005 18.9219 91.4712 19.21L91.0903 19.4297C91.0903 18.9512 91.1367 18.502 91.2295 18.082C91.3271 17.6621 91.4761 17.291 91.6763 16.9688C91.8765 16.6416 92.1304 16.3877 92.438 16.207C92.7505 16.0215 93.1216 15.9287 93.5513 15.9287C93.6489 15.9287 93.7612 15.9409 93.8882 15.9653C94.0151 15.9849 94.103 16.0068 94.1519 16.0312ZM102.296 23.0332C102.619 23.0332 102.917 22.9673 103.19 22.8354C103.463 22.7036 103.688 22.5229 103.864 22.2935C104.04 22.0591 104.14 21.793 104.164 21.4951H105.453C105.429 21.9639 105.27 22.4009 104.977 22.8062C104.689 23.2065 104.311 23.5312 103.842 23.7803C103.373 24.0244 102.858 24.1465 102.296 24.1465C101.701 24.1465 101.181 24.0415 100.736 23.8315C100.297 23.6216 99.9307 23.3335 99.6377 22.9673C99.3496 22.6011 99.1323 22.1812 98.9858 21.7075C98.8442 21.229 98.7734 20.7236 98.7734 20.1914V19.8838C98.7734 19.3516 98.8442 18.8486 98.9858 18.375C99.1323 17.8965 99.3496 17.4741 99.6377 17.1079C99.9307 16.7417 100.297 16.4536 100.736 16.2437C101.181 16.0337 101.701 15.9287 102.296 15.9287C102.917 15.9287 103.458 16.0557 103.922 16.3096C104.386 16.5586 104.75 16.9004 105.014 17.335C105.282 17.7646 105.429 18.2529 105.453 18.7998H104.164C104.14 18.4727 104.047 18.1772 103.886 17.9136C103.729 17.6499 103.515 17.4399 103.241 17.2837C102.973 17.1226 102.658 17.042 102.296 17.042C101.881 17.042 101.532 17.125 101.249 17.291C100.971 17.4521 100.749 17.6719 100.583 17.9502C100.421 18.2236 100.304 18.5288 100.231 18.8657C100.163 19.1978 100.128 19.5371 100.128 19.8838V20.1914C100.128 20.5381 100.163 20.8799 100.231 21.2168C100.299 21.5537 100.414 21.8589 100.575 22.1323C100.741 22.4058 100.963 22.6255 101.242 22.7915C101.525 22.9526 101.876 23.0332 102.296 23.0332ZM111.825 22.1689V16.0752H113.188V24H111.891L111.825 22.1689ZM112.082 20.499L112.646 20.4844C112.646 21.0117 112.589 21.5 112.477 21.9492C112.37 22.3936 112.194 22.7793 111.95 23.1064C111.706 23.4336 111.386 23.6899 110.99 23.8755C110.595 24.0562 110.114 24.1465 109.547 24.1465C109.162 24.1465 108.808 24.0903 108.485 23.978C108.168 23.8657 107.895 23.6924 107.665 23.458C107.436 23.2236 107.257 22.9185 107.13 22.5425C107.008 22.1665 106.947 21.7148 106.947 21.1875V16.0752H108.302V21.2021C108.302 21.5586 108.341 21.854 108.419 22.0884C108.502 22.3179 108.612 22.501 108.749 22.6377C108.891 22.7695 109.047 22.8623 109.218 22.916C109.394 22.9697 109.574 22.9966 109.76 22.9966C110.336 22.9966 110.792 22.8867 111.129 22.667C111.466 22.4424 111.708 22.1421 111.854 21.7661C112.006 21.3853 112.082 20.9629 112.082 20.499ZM118.542 24.1465C117.99 24.1465 117.489 24.0537 117.04 23.8682C116.596 23.6777 116.212 23.4116 115.89 23.0698C115.573 22.728 115.329 22.3228 115.158 21.854C114.987 21.3853 114.901 20.8726 114.901 20.3159V20.0083C114.901 19.3638 114.997 18.79 115.187 18.2871C115.377 17.7793 115.636 17.3496 115.963 16.998C116.291 16.6465 116.662 16.3804 117.077 16.1997C117.492 16.019 117.921 15.9287 118.366 15.9287C118.932 15.9287 119.42 16.0264 119.831 16.2217C120.246 16.417 120.585 16.6904 120.849 17.042C121.112 17.3887 121.308 17.7988 121.435 18.2725C121.562 18.7412 121.625 19.2539 121.625 19.8105V20.4185H115.707V19.3125H120.27V19.21C120.25 18.8584 120.177 18.5166 120.05 18.1846C119.928 17.8525 119.733 17.5791 119.464 17.3643C119.196 17.1494 118.83 17.042 118.366 17.042C118.058 17.042 117.775 17.1079 117.516 17.2397C117.257 17.3667 117.035 17.5571 116.85 17.811C116.664 18.0649 116.52 18.375 116.417 18.7412C116.315 19.1074 116.264 19.5298 116.264 20.0083V20.3159C116.264 20.6919 116.315 21.0459 116.417 21.3779C116.525 21.7051 116.679 21.9932 116.879 22.2422C117.084 22.4912 117.331 22.6865 117.619 22.8281C117.912 22.9697 118.244 23.0405 118.615 23.0405C119.093 23.0405 119.499 22.9429 119.831 22.7476C120.163 22.5522 120.453 22.291 120.702 21.9639L121.522 22.6157C121.352 22.8745 121.134 23.1211 120.871 23.3555C120.607 23.5898 120.282 23.7803 119.896 23.9268C119.516 24.0732 119.064 24.1465 118.542 24.1465ZM124.562 17.7671V24H123.207V16.0752H124.489L124.562 17.7671ZM124.24 19.7373L123.676 19.7153C123.681 19.1733 123.761 18.6729 123.917 18.2139C124.074 17.75 124.293 17.3472 124.577 17.0054C124.86 16.6636 125.197 16.3999 125.587 16.2144C125.983 16.0239 126.42 15.9287 126.898 15.9287C127.289 15.9287 127.641 15.9824 127.953 16.0898C128.266 16.1924 128.532 16.3584 128.751 16.5879C128.976 16.8174 129.147 17.1152 129.264 17.4814C129.381 17.8428 129.44 18.2847 129.44 18.8071V24H128.078V18.7925C128.078 18.3774 128.017 18.0454 127.895 17.7964C127.772 17.5425 127.594 17.3594 127.36 17.2471C127.125 17.1299 126.837 17.0713 126.496 17.0713C126.159 17.0713 125.851 17.1421 125.573 17.2837C125.299 17.4253 125.062 17.6206 124.862 17.8696C124.667 18.1187 124.513 18.4043 124.401 18.7266C124.293 19.0439 124.24 19.3809 124.24 19.7373ZM134.816 16.0752V17.1152H130.531V16.0752H134.816ZM131.981 14.1489H133.336V22.0371C133.336 22.3057 133.378 22.5083 133.461 22.645C133.544 22.7817 133.651 22.8721 133.783 22.916C133.915 22.96 134.057 22.9819 134.208 22.9819C134.32 22.9819 134.438 22.9722 134.56 22.9526C134.687 22.9282 134.782 22.9087 134.845 22.894L134.853 24C134.745 24.0342 134.604 24.0659 134.428 24.0952C134.257 24.1294 134.049 24.1465 133.805 24.1465C133.473 24.1465 133.168 24.0806 132.89 23.9487C132.611 23.8169 132.389 23.5972 132.223 23.2896C132.062 22.9771 131.981 22.5571 131.981 22.0298V14.1489ZM141.078 22.645V18.5654C141.078 18.2529 141.015 17.9819 140.888 17.7524C140.766 17.5181 140.58 17.3374 140.331 17.2104C140.082 17.0835 139.774 17.02 139.408 17.02C139.066 17.02 138.766 17.0786 138.507 17.1958C138.253 17.313 138.053 17.4668 137.907 17.6572C137.765 17.8477 137.694 18.0527 137.694 18.2725H136.339C136.339 17.9893 136.413 17.7085 136.559 17.4302C136.706 17.1519 136.916 16.9004 137.189 16.6758C137.467 16.4463 137.799 16.2656 138.185 16.1338C138.576 15.9971 139.01 15.9287 139.489 15.9287C140.065 15.9287 140.573 16.0264 141.012 16.2217C141.457 16.417 141.803 16.7124 142.052 17.1079C142.306 17.4985 142.433 17.9893 142.433 18.5801V22.2715C142.433 22.5352 142.455 22.8159 142.499 23.1138C142.548 23.4116 142.619 23.668 142.711 23.8828V24H141.298C141.229 23.8438 141.176 23.6362 141.137 23.3774C141.098 23.1138 141.078 22.8696 141.078 22.645ZM141.312 19.1953L141.327 20.1475H139.958C139.572 20.1475 139.228 20.1792 138.925 20.2427C138.622 20.3013 138.368 20.3916 138.163 20.5137C137.958 20.6357 137.802 20.7896 137.694 20.9751C137.587 21.1558 137.533 21.3682 137.533 21.6123C137.533 21.8613 137.589 22.0884 137.702 22.2935C137.814 22.4985 137.982 22.6621 138.207 22.7842C138.437 22.9014 138.717 22.96 139.049 22.96C139.464 22.96 139.831 22.8721 140.148 22.6963C140.465 22.5205 140.717 22.3057 140.902 22.0518C141.093 21.7979 141.195 21.5513 141.21 21.312L141.789 21.9639C141.754 22.1689 141.662 22.396 141.51 22.645C141.359 22.894 141.156 23.1333 140.902 23.3628C140.653 23.5874 140.355 23.7754 140.009 23.9268C139.667 24.0732 139.281 24.1465 138.852 24.1465C138.314 24.1465 137.843 24.0415 137.438 23.8315C137.038 23.6216 136.725 23.3408 136.5 22.9893C136.281 22.6328 136.171 22.2349 136.171 21.7954C136.171 21.3706 136.254 20.9971 136.42 20.6748C136.586 20.3477 136.825 20.0767 137.138 19.8618C137.45 19.6421 137.826 19.4761 138.266 19.3638C138.705 19.2515 139.196 19.1953 139.738 19.1953H141.312Z" fill="white"/>
</g>
<defs>
<filter id="filter0_d_108_66" x="0" y="0" width="202" height="46" filterUnits="userSpaceOnUse" color-interpolation-filters="sRGB">
<feFlood flood-opacity="0" result="BackgroundImageFix"/>
<feColorMatrix in="SourceAlpha" type="matrix" values="0 0 0 0 0 0 0 0 0 0 0 0 0 0 0 0 0 0 127 0" result="hardAlpha"/>
<feOffset dy="4"/>
<feGaussianBlur stdDeviation="2"/>
<feComposite in2="hardAlpha" operator="out"/>
<feColorMatrix type="matrix" values="0 0 0 0 0 0 0 0 0 0 0 0 0 0 0 0 0 0 0.25 0"/>
<feBlend mode="normal" in2="BackgroundImageFix" result="effect1_dropShadow_108_66"/>
<feBlend mode="normal" in="SourceGraphic" in2="effect1_dropShadow_108_66" result="shape"/>
</filter>
</defs>
</svg>
