<svg width="202" height="46" viewBox="0 0 202 46" fill="none" xmlns="http://www.w3.org/2000/svg">
<g filter="url(#filter0_d_94_267)">
<rect x="4" width="194" height="38" rx="10" fill="#3F236A" shape-rendering="crispEdges"/>
<path d="M89.0269 22.8501V24H83.3799V22.8501H89.0269ZM83.6655 13.3359V24H82.252V13.3359H83.6655ZM88.2798 17.9209V19.0708H83.3799V17.9209H88.2798ZM88.9536 13.3359V14.4932H83.3799V13.3359H88.9536ZM91.9272 17.7671V24H90.5723V16.0752H91.854L91.9272 17.7671ZM91.605 19.7373L91.041 19.7153C91.0459 19.1733 91.1265 18.6729 91.2827 18.2139C91.439 17.75 91.6587 17.3472 91.9419 17.0054C92.2251 16.6636 92.562 16.3999 92.9526 16.2144C93.3481 16.0239 93.7852 15.9287 94.2637 15.9287C94.6543 15.9287 95.0059 15.9824 95.3184 16.0898C95.6309 16.1924 95.897 16.3584 96.1167 16.5879C96.3413 16.8174 96.5122 17.1152 96.6294 17.4814C96.7466 17.8428 96.8052 18.2847 96.8052 18.8071V24H95.4429V18.7925C95.4429 18.3774 95.3818 18.0454 95.2598 17.7964C95.1377 17.5425 94.9595 17.3594 94.7251 17.2471C94.4907 17.1299 94.2026 17.0713 93.8608 17.0713C93.5239 17.0713 93.2163 17.1421 92.938 17.2837C92.6646 17.4253 92.4277 17.6206 92.2275 17.8696C92.0322 18.1187 91.8784 18.4043 91.7661 18.7266C91.6587 19.0439 91.605 19.3809 91.605 19.7373ZM101.273 22.7769L103.441 16.0752H104.825L101.976 24H101.068L101.273 22.7769ZM99.4639 16.0752L101.698 22.8135L101.852 24H100.943L98.0723 16.0752H99.4639ZM107.601 16.0752V24H106.239V16.0752H107.601ZM106.136 13.9731C106.136 13.7534 106.202 13.5679 106.334 13.4165C106.471 13.2651 106.671 13.1895 106.935 13.1895C107.193 13.1895 107.391 13.2651 107.528 13.4165C107.669 13.5679 107.74 13.7534 107.74 13.9731C107.74 14.1831 107.669 14.3638 107.528 14.5151C107.391 14.6616 107.193 14.7349 106.935 14.7349C106.671 14.7349 106.471 14.6616 106.334 14.5151C106.202 14.3638 106.136 14.1831 106.136 13.9731ZM114.449 22.645V18.5654C114.449 18.2529 114.386 17.9819 114.259 17.7524C114.137 17.5181 113.951 17.3374 113.702 17.2104C113.453 17.0835 113.146 17.02 112.779 17.02C112.438 17.02 112.137 17.0786 111.878 17.1958C111.625 17.313 111.424 17.4668 111.278 17.6572C111.136 17.8477 111.065 18.0527 111.065 18.2725H109.71C109.71 17.9893 109.784 17.7085 109.93 17.4302C110.077 17.1519 110.287 16.9004 110.56 16.6758C110.838 16.4463 111.17 16.2656 111.556 16.1338C111.947 15.9971 112.381 15.9287 112.86 15.9287C113.436 15.9287 113.944 16.0264 114.383 16.2217C114.828 16.417 115.174 16.7124 115.423 17.1079C115.677 17.4985 115.804 17.9893 115.804 18.5801V22.2715C115.804 22.5352 115.826 22.8159 115.87 23.1138C115.919 23.4116 115.99 23.668 116.083 23.8828V24H114.669C114.601 23.8438 114.547 23.6362 114.508 23.3774C114.469 23.1138 114.449 22.8696 114.449 22.645ZM114.684 19.1953L114.698 20.1475H113.329C112.943 20.1475 112.599 20.1792 112.296 20.2427C111.993 20.3013 111.739 20.3916 111.534 20.5137C111.329 20.6357 111.173 20.7896 111.065 20.9751C110.958 21.1558 110.904 21.3682 110.904 21.6123C110.904 21.8613 110.96 22.0884 111.073 22.2935C111.185 22.4985 111.354 22.6621 111.578 22.7842C111.808 22.9014 112.088 22.96 112.42 22.96C112.835 22.96 113.202 22.8721 113.519 22.6963C113.836 22.5205 114.088 22.3057 114.273 22.0518C114.464 21.7979 114.566 21.5513 114.581 21.312L115.16 21.9639C115.125 22.1689 115.033 22.396 114.881 22.645C114.73 22.894 114.527 23.1333 114.273 23.3628C114.024 23.5874 113.727 23.7754 113.38 23.9268C113.038 24.0732 112.652 24.1465 112.223 24.1465C111.686 24.1465 111.214 24.0415 110.809 23.8315C110.409 23.6216 110.096 23.3408 109.872 22.9893C109.652 22.6328 109.542 22.2349 109.542 21.7954C109.542 21.3706 109.625 20.9971 109.791 20.6748C109.957 20.3477 110.196 20.0767 110.509 19.8618C110.821 19.6421 111.197 19.4761 111.637 19.3638C112.076 19.2515 112.567 19.1953 113.109 19.1953H114.684ZM119.291 17.3203V24H117.936V16.0752H119.254L119.291 17.3203ZM121.766 16.0312L121.759 17.291C121.646 17.2666 121.539 17.252 121.437 17.2471C121.339 17.2373 121.227 17.2324 121.1 17.2324C120.787 17.2324 120.511 17.2812 120.272 17.3789C120.033 17.4766 119.83 17.6133 119.664 17.7891C119.498 17.9648 119.366 18.1748 119.269 18.4189C119.176 18.6582 119.115 18.9219 119.085 19.21L118.705 19.4297C118.705 18.9512 118.751 18.502 118.844 18.082C118.941 17.6621 119.09 17.291 119.291 16.9688C119.491 16.6416 119.745 16.3877 120.052 16.207C120.365 16.0215 120.736 15.9287 121.166 15.9287C121.263 15.9287 121.375 15.9409 121.502 15.9653C121.629 15.9849 121.717 16.0068 121.766 16.0312Z" fill="white"/>
</g>
<defs>
<filter id="filter0_d_94_267" x="0" y="0" width="202" height="46" filterUnits="userSpaceOnUse" color-interpolation-filters="sRGB">
<feFlood flood-opacity="0" result="BackgroundImageFix"/>
<feColorMatrix in="SourceAlpha" type="matrix" values="0 0 0 0 0 0 0 0 0 0 0 0 0 0 0 0 0 0 127 0" result="hardAlpha"/>
<feOffset dy="4"/>
<feGaussianBlur stdDeviation="2"/>
<feComposite in2="hardAlpha" operator="out"/>
<feColorMatrix type="matrix" values="0 0 0 0 0 0 0 0 0 0 0 0 0 0 0 0 0 0 0.25 0"/>
<feBlend mode="normal" in2="BackgroundImageFix" result="effect1_dropShadow_94_267"/>
<feBlend mode="normal" in="SourceGraphic" in2="effect1_dropShadow_94_267" result="shape"/>
</filter>
</defs>
</svg>
