<svg width="202" height="46" viewBox="0 0 202 46" fill="none" xmlns="http://www.w3.org/2000/svg">
<g filter="url(#filter0_d_16_190)">
<rect x="4" width="194" height="38" rx="10" fill="#7C45D0" shape-rendering="crispEdges"/>
<path d="M58.959 13.3359V24H57.5454V13.3359H58.959ZM62.6797 17.7671V24H61.3247V16.0752H62.6064L62.6797 17.7671ZM62.3574 19.7373L61.7935 19.7153C61.7983 19.1733 61.8789 18.6729 62.0352 18.2139C62.1914 17.75 62.4111 17.3472 62.6943 17.0054C62.9775 16.6636 63.3145 16.3999 63.7051 16.2144C64.1006 16.0239 64.5376 15.9287 65.0161 15.9287C65.4067 15.9287 65.7583 15.9824 66.0708 16.0898C66.3833 16.1924 66.6494 16.3584 66.8691 16.5879C67.0938 16.8174 67.2646 17.1152 67.3818 17.4814C67.499 17.8428 67.5576 18.2847 67.5576 18.8071V24H66.1953V18.7925C66.1953 18.3774 66.1343 18.0454 66.0122 17.7964C65.8901 17.5425 65.7119 17.3594 65.4775 17.2471C65.2432 17.1299 64.9551 17.0713 64.6133 17.0713C64.2764 17.0713 63.9688 17.1421 63.6904 17.2837C63.417 17.4253 63.1802 17.6206 62.98 17.8696C62.7847 18.1187 62.6309 18.4043 62.5186 18.7266C62.4111 19.0439 62.3574 19.3809 62.3574 19.7373ZM71.0879 16.0752V24H69.7256V16.0752H71.0879ZM69.623 13.9731C69.623 13.7534 69.689 13.5679 69.8208 13.4165C69.9575 13.2651 70.1577 13.1895 70.4214 13.1895C70.6802 13.1895 70.8779 13.2651 71.0146 13.4165C71.1562 13.5679 71.2271 13.7534 71.2271 13.9731C71.2271 14.1831 71.1562 14.3638 71.0146 14.5151C70.8779 14.6616 70.6802 14.7349 70.4214 14.7349C70.1577 14.7349 69.9575 14.6616 69.8208 14.5151C69.689 14.3638 69.623 14.1831 69.623 13.9731ZM76.4346 23.0332C76.7568 23.0332 77.0547 22.9673 77.3281 22.8354C77.6016 22.7036 77.8262 22.5229 78.002 22.2935C78.1777 22.0591 78.2778 21.793 78.3022 21.4951H79.5913C79.5669 21.9639 79.4082 22.4009 79.1152 22.8062C78.8271 23.2065 78.4487 23.5312 77.98 23.7803C77.5112 24.0244 76.9961 24.1465 76.4346 24.1465C75.8389 24.1465 75.3188 24.0415 74.8745 23.8315C74.4351 23.6216 74.0688 23.3335 73.7759 22.9673C73.4878 22.6011 73.2705 22.1812 73.124 21.7075C72.9824 21.229 72.9116 20.7236 72.9116 20.1914V19.8838C72.9116 19.3516 72.9824 18.8486 73.124 18.375C73.2705 17.8965 73.4878 17.4741 73.7759 17.1079C74.0688 16.7417 74.4351 16.4536 74.8745 16.2437C75.3188 16.0337 75.8389 15.9287 76.4346 15.9287C77.0547 15.9287 77.5967 16.0557 78.0605 16.3096C78.5244 16.5586 78.8882 16.9004 79.1519 17.335C79.4204 17.7646 79.5669 18.2529 79.5913 18.7998H78.3022C78.2778 18.4727 78.1851 18.1772 78.0239 17.9136C77.8677 17.6499 77.6528 17.4399 77.3794 17.2837C77.1108 17.1226 76.7959 17.042 76.4346 17.042C76.0195 17.042 75.6704 17.125 75.3872 17.291C75.1089 17.4521 74.8867 17.6719 74.7207 17.9502C74.5596 18.2236 74.4424 18.5288 74.3691 18.8657C74.3008 19.1978 74.2666 19.5371 74.2666 19.8838V20.1914C74.2666 20.5381 74.3008 20.8799 74.3691 21.2168C74.4375 21.5537 74.5522 21.8589 74.7134 22.1323C74.8794 22.4058 75.1016 22.6255 75.3799 22.7915C75.6631 22.9526 76.0146 23.0332 76.4346 23.0332ZM82.5869 16.0752V24H81.2246V16.0752H82.5869ZM81.1221 13.9731C81.1221 13.7534 81.188 13.5679 81.3198 13.4165C81.4565 13.2651 81.6567 13.1895 81.9204 13.1895C82.1792 13.1895 82.377 13.2651 82.5137 13.4165C82.6553 13.5679 82.7261 13.7534 82.7261 13.9731C82.7261 14.1831 82.6553 14.3638 82.5137 14.5151C82.377 14.6616 82.1792 14.7349 81.9204 14.7349C81.6567 14.7349 81.4565 14.6616 81.3198 14.5151C81.188 14.3638 81.1221 14.1831 81.1221 13.9731ZM89.4351 22.645V18.5654C89.4351 18.2529 89.3716 17.9819 89.2446 17.7524C89.1226 17.5181 88.937 17.3374 88.688 17.2104C88.439 17.0835 88.1313 17.02 87.7651 17.02C87.4233 17.02 87.123 17.0786 86.8643 17.1958C86.6104 17.313 86.4102 17.4668 86.2637 17.6572C86.1221 17.8477 86.0513 18.0527 86.0513 18.2725H84.6963C84.6963 17.9893 84.7695 17.7085 84.916 17.4302C85.0625 17.1519 85.2725 16.9004 85.5459 16.6758C85.8242 16.4463 86.1562 16.2656 86.542 16.1338C86.9326 15.9971 87.3672 15.9287 87.8457 15.9287C88.4219 15.9287 88.9297 16.0264 89.3691 16.2217C89.8135 16.417 90.1602 16.7124 90.4092 17.1079C90.6631 17.4985 90.79 17.9893 90.79 18.5801V22.2715C90.79 22.5352 90.812 22.8159 90.856 23.1138C90.9048 23.4116 90.9756 23.668 91.0684 23.8828V24H89.6548C89.5864 23.8438 89.5327 23.6362 89.4937 23.3774C89.4546 23.1138 89.4351 22.8696 89.4351 22.645ZM89.6694 19.1953L89.6841 20.1475H88.3145C87.9287 20.1475 87.5845 20.1792 87.2817 20.2427C86.979 20.3013 86.7251 20.3916 86.52 20.5137C86.3149 20.6357 86.1587 20.7896 86.0513 20.9751C85.9438 21.1558 85.8901 21.3682 85.8901 21.6123C85.8901 21.8613 85.9463 22.0884 86.0586 22.2935C86.1709 22.4985 86.3394 22.6621 86.564 22.7842C86.7935 22.9014 87.0742 22.96 87.4062 22.96C87.8213 22.96 88.1875 22.8721 88.5049 22.6963C88.8223 22.5205 89.0737 22.3057 89.2593 22.0518C89.4497 21.7979 89.5522 21.5513 89.5669 21.312L90.1455 21.9639C90.1113 22.1689 90.0186 22.396 89.8672 22.645C89.7158 22.894 89.5132 23.1333 89.2593 23.3628C89.0103 23.5874 88.7124 23.7754 88.3657 23.9268C88.0239 24.0732 87.6382 24.1465 87.2085 24.1465C86.6714 24.1465 86.2002 24.0415 85.7949 23.8315C85.3945 23.6216 85.082 23.3408 84.8574 22.9893C84.6377 22.6328 84.5278 22.2349 84.5278 21.7954C84.5278 21.3706 84.6108 20.9971 84.7769 20.6748C84.9429 20.3477 85.1821 20.0767 85.4946 19.8618C85.8071 19.6421 86.1831 19.4761 86.6226 19.3638C87.062 19.2515 87.5527 19.1953 88.0947 19.1953H89.6694ZM94.2764 17.3203V24H92.9214V16.0752H94.2397L94.2764 17.3203ZM96.752 16.0312L96.7446 17.291C96.6323 17.2666 96.5249 17.252 96.4224 17.2471C96.3247 17.2373 96.2124 17.2324 96.0854 17.2324C95.7729 17.2324 95.4971 17.2812 95.2578 17.3789C95.0186 17.4766 94.8159 17.6133 94.6499 17.7891C94.4839 17.9648 94.3521 18.1748 94.2544 18.4189C94.1616 18.6582 94.1006 18.9219 94.0713 19.21L93.6904 19.4297C93.6904 18.9512 93.7368 18.502 93.8296 18.082C93.9272 17.6621 94.0762 17.291 94.2764 16.9688C94.4766 16.6416 94.7305 16.3877 95.0381 16.207C95.3506 16.0215 95.7217 15.9287 96.1514 15.9287C96.249 15.9287 96.3613 15.9409 96.4883 15.9653C96.6152 15.9849 96.7031 16.0068 96.752 16.0312ZM107.614 21.3047C107.614 21.0557 107.575 20.8359 107.497 20.6455C107.423 20.4502 107.292 20.2744 107.101 20.1182C106.916 19.9619 106.657 19.813 106.325 19.6714C105.998 19.5298 105.583 19.3857 105.08 19.2393C104.552 19.083 104.076 18.9097 103.651 18.7192C103.227 18.5239 102.863 18.3018 102.56 18.0527C102.257 17.8037 102.025 17.5181 101.864 17.1958C101.703 16.8735 101.623 16.5049 101.623 16.0898C101.623 15.6748 101.708 15.2915 101.879 14.9399C102.05 14.5884 102.294 14.2832 102.611 14.0244C102.934 13.7607 103.317 13.5557 103.761 13.4092C104.206 13.2627 104.701 13.1895 105.248 13.1895C106.049 13.1895 106.728 13.3433 107.284 13.6509C107.846 13.9536 108.273 14.3516 108.566 14.8447C108.859 15.333 109.005 15.8555 109.005 16.4121H107.599C107.599 16.0117 107.514 15.6577 107.343 15.3501C107.172 15.0376 106.913 14.7935 106.566 14.6177C106.22 14.437 105.78 14.3467 105.248 14.3467C104.745 14.3467 104.33 14.4224 104.003 14.5737C103.676 14.7251 103.432 14.9302 103.271 15.189C103.114 15.4478 103.036 15.7432 103.036 16.0752C103.036 16.2998 103.083 16.5049 103.175 16.6904C103.273 16.8711 103.422 17.0396 103.622 17.1958C103.827 17.3521 104.086 17.4961 104.398 17.6279C104.716 17.7598 105.094 17.8867 105.534 18.0088C106.139 18.1797 106.662 18.3701 107.101 18.5801C107.541 18.79 107.902 19.0269 108.185 19.2905C108.473 19.5493 108.686 19.8447 108.822 20.1768C108.964 20.5039 109.035 20.875 109.035 21.29C109.035 21.7246 108.947 22.1177 108.771 22.4692C108.595 22.8208 108.344 23.1211 108.017 23.3701C107.689 23.6191 107.296 23.812 106.837 23.9487C106.383 24.0806 105.875 24.1465 105.314 24.1465C104.821 24.1465 104.335 24.0781 103.856 23.9414C103.383 23.8047 102.951 23.5996 102.56 23.3262C102.174 23.0527 101.864 22.7158 101.63 22.3154C101.4 21.9102 101.286 21.4414 101.286 20.9092H102.692C102.692 21.2754 102.763 21.5903 102.904 21.854C103.046 22.1128 103.239 22.3276 103.483 22.4985C103.732 22.6694 104.013 22.7964 104.325 22.8794C104.643 22.9575 104.972 22.9966 105.314 22.9966C105.807 22.9966 106.225 22.9282 106.566 22.7915C106.908 22.6548 107.167 22.4595 107.343 22.2056C107.523 21.9517 107.614 21.6514 107.614 21.3047ZM113.92 24.1465C113.368 24.1465 112.868 24.0537 112.418 23.8682C111.974 23.6777 111.591 23.4116 111.269 23.0698C110.951 22.728 110.707 22.3228 110.536 21.854C110.365 21.3853 110.28 20.8726 110.28 20.3159V20.0083C110.28 19.3638 110.375 18.79 110.565 18.2871C110.756 17.7793 111.015 17.3496 111.342 16.998C111.669 16.6465 112.04 16.3804 112.455 16.1997C112.87 16.019 113.3 15.9287 113.744 15.9287C114.311 15.9287 114.799 16.0264 115.209 16.2217C115.624 16.417 115.963 16.6904 116.227 17.042C116.491 17.3887 116.686 17.7988 116.813 18.2725C116.94 18.7412 117.003 19.2539 117.003 19.8105V20.4185H111.085V19.3125H115.648V19.21C115.629 18.8584 115.556 18.5166 115.429 18.1846C115.307 17.8525 115.111 17.5791 114.843 17.3643C114.574 17.1494 114.208 17.042 113.744 17.042C113.437 17.042 113.153 17.1079 112.895 17.2397C112.636 17.3667 112.414 17.5571 112.228 17.811C112.042 18.0649 111.898 18.375 111.796 18.7412C111.693 19.1074 111.642 19.5298 111.642 20.0083V20.3159C111.642 20.6919 111.693 21.0459 111.796 21.3779C111.903 21.7051 112.057 21.9932 112.257 22.2422C112.462 22.4912 112.709 22.6865 112.997 22.8281C113.29 22.9697 113.622 23.0405 113.993 23.0405C114.472 23.0405 114.877 22.9429 115.209 22.7476C115.541 22.5522 115.832 22.291 116.081 21.9639L116.901 22.6157C116.73 22.8745 116.513 23.1211 116.249 23.3555C115.985 23.5898 115.661 23.7803 115.275 23.9268C114.894 24.0732 114.442 24.1465 113.92 24.1465ZM123.2 21.8979C123.2 21.7026 123.156 21.522 123.068 21.356C122.985 21.1851 122.812 21.0312 122.548 20.8945C122.289 20.7529 121.898 20.6309 121.376 20.5283C120.937 20.4355 120.539 20.3257 120.182 20.1987C119.831 20.0718 119.53 19.918 119.281 19.7373C119.037 19.5566 118.849 19.3442 118.717 19.1001C118.585 18.856 118.52 18.5703 118.52 18.2432C118.52 17.9307 118.588 17.6353 118.725 17.3569C118.866 17.0786 119.064 16.832 119.318 16.6172C119.577 16.4023 119.887 16.2339 120.248 16.1118C120.609 15.9897 121.012 15.9287 121.457 15.9287C122.091 15.9287 122.633 16.041 123.083 16.2656C123.532 16.4902 123.876 16.7905 124.115 17.1665C124.354 17.5376 124.474 17.9502 124.474 18.4043H123.119C123.119 18.1846 123.053 17.9722 122.921 17.7671C122.794 17.5571 122.606 17.3838 122.357 17.2471C122.113 17.1104 121.813 17.042 121.457 17.042C121.081 17.042 120.775 17.1006 120.541 17.2178C120.312 17.3301 120.143 17.4741 120.036 17.6499C119.933 17.8257 119.882 18.0112 119.882 18.2065C119.882 18.353 119.906 18.4849 119.955 18.6021C120.009 18.7144 120.102 18.8193 120.233 18.917C120.365 19.0098 120.551 19.0977 120.79 19.1807C121.029 19.2637 121.334 19.3467 121.706 19.4297C122.355 19.5762 122.89 19.752 123.31 19.957C123.729 20.1621 124.042 20.4136 124.247 20.7114C124.452 21.0093 124.555 21.3706 124.555 21.7954C124.555 22.1421 124.481 22.4595 124.335 22.7476C124.193 23.0356 123.986 23.2847 123.712 23.4946C123.444 23.6997 123.122 23.8608 122.746 23.978C122.375 24.0903 121.957 24.1465 121.493 24.1465C120.795 24.1465 120.204 24.022 119.721 23.7729C119.237 23.5239 118.871 23.2017 118.622 22.8062C118.373 22.4106 118.249 21.9932 118.249 21.5537H119.611C119.63 21.9248 119.738 22.2202 119.933 22.4399C120.128 22.6548 120.368 22.8086 120.651 22.9014C120.934 22.9893 121.215 23.0332 121.493 23.0332C121.864 23.0332 122.174 22.9844 122.423 22.8867C122.677 22.7891 122.87 22.6548 123.002 22.4839C123.134 22.313 123.2 22.1177 123.2 21.8979ZM127.807 16.0752V24H126.444V16.0752H127.807ZM126.342 13.9731C126.342 13.7534 126.408 13.5679 126.54 13.4165C126.676 13.2651 126.876 13.1895 127.14 13.1895C127.399 13.1895 127.597 13.2651 127.733 13.4165C127.875 13.5679 127.946 13.7534 127.946 13.9731C127.946 14.1831 127.875 14.3638 127.733 14.5151C127.597 14.6616 127.399 14.7349 127.14 14.7349C126.876 14.7349 126.676 14.6616 126.54 14.5151C126.408 14.3638 126.342 14.1831 126.342 13.9731ZM129.623 20.1255V19.957C129.623 19.3857 129.706 18.856 129.872 18.3677C130.038 17.8745 130.277 17.4473 130.59 17.0859C130.902 16.7197 131.281 16.4365 131.725 16.2363C132.169 16.0312 132.667 15.9287 133.219 15.9287C133.776 15.9287 134.276 16.0312 134.721 16.2363C135.17 16.4365 135.551 16.7197 135.863 17.0859C136.181 17.4473 136.422 17.8745 136.588 18.3677C136.754 18.856 136.837 19.3857 136.837 19.957V20.1255C136.837 20.6968 136.754 21.2266 136.588 21.7148C136.422 22.2031 136.181 22.6304 135.863 22.9966C135.551 23.3579 135.172 23.6411 134.728 23.8462C134.289 24.0464 133.791 24.1465 133.234 24.1465C132.677 24.1465 132.177 24.0464 131.732 23.8462C131.288 23.6411 130.907 23.3579 130.59 22.9966C130.277 22.6304 130.038 22.2031 129.872 21.7148C129.706 21.2266 129.623 20.6968 129.623 20.1255ZM130.978 19.957V20.1255C130.978 20.521 131.024 20.8945 131.117 21.2461C131.21 21.5928 131.349 21.9004 131.535 22.1689C131.725 22.4375 131.962 22.6499 132.245 22.8062C132.528 22.9575 132.858 23.0332 133.234 23.0332C133.605 23.0332 133.93 22.9575 134.208 22.8062C134.491 22.6499 134.726 22.4375 134.911 22.1689C135.097 21.9004 135.236 21.5928 135.329 21.2461C135.426 20.8945 135.475 20.521 135.475 20.1255V19.957C135.475 19.5664 135.426 19.1978 135.329 18.8511C135.236 18.4995 135.094 18.1895 134.904 17.9209C134.718 17.6475 134.484 17.4326 134.201 17.2764C133.922 17.1201 133.595 17.042 133.219 17.042C132.848 17.042 132.521 17.1201 132.238 17.2764C131.959 17.4326 131.725 17.6475 131.535 17.9209C131.349 18.1895 131.21 18.4995 131.117 18.8511C131.024 19.1978 130.978 19.5664 130.978 19.957ZM132.414 14.9033L133.834 12.75H135.468L133.505 14.9033H132.414ZM139.892 17.7671V24H138.537V16.0752H139.818L139.892 17.7671ZM139.569 19.7373L139.005 19.7153C139.01 19.1733 139.091 18.6729 139.247 18.2139C139.403 17.75 139.623 17.3472 139.906 17.0054C140.189 16.6636 140.526 16.3999 140.917 16.2144C141.312 16.0239 141.75 15.9287 142.228 15.9287C142.619 15.9287 142.97 15.9824 143.283 16.0898C143.595 16.1924 143.861 16.3584 144.081 16.5879C144.306 16.8174 144.477 17.1152 144.594 17.4814C144.711 17.8428 144.77 18.2847 144.77 18.8071V24H143.407V18.7925C143.407 18.3774 143.346 18.0454 143.224 17.7964C143.102 17.5425 142.924 17.3594 142.689 17.2471C142.455 17.1299 142.167 17.0713 141.825 17.0713C141.488 17.0713 141.181 17.1421 140.902 17.2837C140.629 17.4253 140.392 17.6206 140.192 17.8696C139.997 18.1187 139.843 18.4043 139.73 18.7266C139.623 19.0439 139.569 19.3809 139.569 19.7373Z" fill="white"/>
</g>
<defs>
<filter id="filter0_d_16_190" x="0" y="0" width="202" height="46" filterUnits="userSpaceOnUse" color-interpolation-filters="sRGB">
<feFlood flood-opacity="0" result="BackgroundImageFix"/>
<feColorMatrix in="SourceAlpha" type="matrix" values="0 0 0 0 0 0 0 0 0 0 0 0 0 0 0 0 0 0 127 0" result="hardAlpha"/>
<feOffset dy="4"/>
<feGaussianBlur stdDeviation="2"/>
<feComposite in2="hardAlpha" operator="out"/>
<feColorMatrix type="matrix" values="0 0 0 0 0 0 0 0 0 0 0 0 0 0 0 0 0 0 0.25 0"/>
<feBlend mode="normal" in2="BackgroundImageFix" result="effect1_dropShadow_16_190"/>
<feBlend mode="normal" in="SourceGraphic" in2="effect1_dropShadow_16_190" result="shape"/>
</filter>
</defs>
</svg>
